<svg width="736" height="190" viewBox="0 0 736 190" fill="none" xmlns="http://www.w3.org/2000/svg">
<path d="M0.643921 165.82H5.8123L12.7338 182.714H13.0071L19.9286 165.82H25.097V189.135H21.0442V173.118H20.8279L14.3845 189.067H11.3564L4.91296 173.083H4.69666V189.135H0.643921V165.82Z" fill="#212529"/>
<path d="M72.3282 177.478C72.3282 179.99 71.8577 182.141 70.9166 183.933C69.9831 185.716 68.7081 187.082 67.0915 188.031C65.4826 188.979 63.6573 189.454 61.6158 189.454C59.5742 189.454 57.7452 188.979 56.1286 188.031C54.5197 187.075 53.2447 185.705 52.3036 183.921C51.3701 182.13 50.9033 179.982 50.9033 177.478C50.9033 174.966 51.3701 172.818 52.3036 171.034C53.2447 169.243 54.5197 167.873 56.1286 166.925C57.7452 165.976 59.5742 165.502 61.6158 165.502C63.6573 165.502 65.4826 165.976 67.0915 166.925C68.7081 167.873 69.9831 169.243 70.9166 171.034C71.8577 172.818 72.3282 174.966 72.3282 177.478ZM68.0819 177.478C68.0819 175.709 67.8049 174.218 67.2509 173.004C66.7045 171.782 65.9455 170.86 64.9741 170.237C64.0026 169.608 62.8832 169.293 61.6158 169.293C60.3484 169.293 59.2289 169.608 58.2575 170.237C57.286 170.86 56.5233 171.782 55.9693 173.004C55.4228 174.218 55.1496 175.709 55.1496 177.478C55.1496 179.246 55.4228 180.741 55.9693 181.963C56.5233 183.177 57.286 184.099 58.2575 184.729C59.2289 185.352 60.3484 185.663 61.6158 185.663C62.8832 185.663 64.0026 185.352 64.9741 184.729C65.9455 184.099 66.7045 183.177 67.2509 181.963C67.8049 180.741 68.0819 179.246 68.0819 177.478Z" fill="#212529"/>
<path d="M95.2117 165.82H99.9817L105.685 176.134H105.913L111.616 165.82H116.386L107.905 180.438V189.135H103.693V180.438L95.2117 165.82Z" fill="#212529"/>
<path d="M160.695 177.478C160.695 179.99 160.224 182.141 159.283 183.933C158.349 185.716 157.074 187.082 155.458 188.031C153.849 188.979 152.024 189.454 149.982 189.454C147.941 189.454 146.112 188.979 144.495 188.031C142.886 187.075 141.611 185.705 140.67 183.921C139.736 182.13 139.27 179.982 139.27 177.478C139.27 174.966 139.736 172.818 140.67 171.034C141.611 169.243 142.886 167.873 144.495 166.925C146.112 165.976 147.941 165.502 149.982 165.502C152.024 165.502 153.849 165.976 155.458 166.925C157.074 167.873 158.349 169.243 159.283 171.034C160.224 172.818 160.695 174.966 160.695 177.478ZM156.448 177.478C156.448 175.709 156.171 174.218 155.617 173.004C155.071 171.782 154.312 170.86 153.34 170.237C152.369 169.608 151.25 169.293 149.982 169.293C148.715 169.293 147.595 169.608 146.624 170.237C145.652 170.86 144.89 171.782 144.336 173.004C143.789 174.218 143.516 175.709 143.516 177.478C143.516 179.246 143.789 180.741 144.336 181.963C144.89 183.177 145.652 184.099 146.624 184.729C147.595 185.352 148.715 185.663 149.982 185.663C151.25 185.663 152.369 185.352 153.34 184.729C154.312 184.099 155.071 183.177 155.617 181.963C156.171 180.741 156.448 179.246 156.448 177.478Z" fill="#212529"/>
<path d="M224.138 189.135H216.238V165.82H224.298C226.612 165.82 228.601 166.287 230.263 167.221C231.933 168.147 233.215 169.478 234.111 171.216C235.006 172.954 235.454 175.034 235.454 177.455C235.454 179.884 235.002 181.971 234.099 183.716C233.204 185.462 231.91 186.801 230.217 187.735C228.533 188.668 226.506 189.135 224.138 189.135ZM220.461 185.481H223.933C225.557 185.481 226.912 185.185 227.997 184.593C229.083 183.993 229.899 183.101 230.445 181.918C230.991 180.726 231.265 179.238 231.265 177.455C231.265 175.671 230.991 174.192 230.445 173.015C229.899 171.831 229.09 170.947 228.02 170.363C226.958 169.771 225.637 169.475 224.059 169.475H220.461V185.481Z" fill="#212529"/>
<path d="M261.266 189.135V165.82H276.43V169.361H265.49V175.69H275.644V179.231H265.49V185.595H276.521V189.135H261.266Z" fill="#212529"/>
<path d="M315.208 172.23C315.102 171.235 314.654 170.461 313.865 169.907C313.083 169.353 312.066 169.076 310.814 169.076C309.934 169.076 309.179 169.209 308.549 169.475C307.919 169.74 307.437 170.101 307.103 170.556C306.769 171.012 306.598 171.531 306.591 172.116C306.591 172.602 306.701 173.023 306.921 173.379C307.148 173.736 307.456 174.04 307.843 174.29C308.23 174.533 308.659 174.738 309.129 174.905C309.6 175.072 310.074 175.212 310.552 175.326L312.738 175.873C313.618 176.077 314.465 176.354 315.277 176.704C316.096 177.053 316.829 177.493 317.474 178.024C318.126 178.555 318.642 179.197 319.022 179.948C319.401 180.699 319.591 181.58 319.591 182.589C319.591 183.955 319.242 185.158 318.544 186.198C317.846 187.23 316.836 188.038 315.516 188.623C314.203 189.2 312.613 189.488 310.746 189.488C308.932 189.488 307.357 189.207 306.021 188.646C304.693 188.084 303.653 187.264 302.902 186.187C302.158 185.109 301.756 183.796 301.695 182.248H305.851C305.911 183.06 306.162 183.735 306.602 184.274C307.042 184.813 307.615 185.215 308.321 185.481C309.034 185.746 309.831 185.879 310.712 185.879C311.63 185.879 312.434 185.743 313.125 185.469C313.823 185.189 314.37 184.801 314.764 184.308C315.159 183.807 315.36 183.223 315.368 182.555C315.36 181.948 315.182 181.447 314.833 181.052C314.483 180.65 313.994 180.316 313.364 180.051C312.742 179.777 312.013 179.534 311.178 179.322L308.526 178.639C306.606 178.146 305.088 177.398 303.972 176.396C302.864 175.387 302.31 174.047 302.31 172.378C302.31 171.004 302.682 169.801 303.426 168.769C304.177 167.737 305.198 166.936 306.488 166.367C307.778 165.79 309.239 165.502 310.871 165.502C312.525 165.502 313.975 165.79 315.22 166.367C316.472 166.936 317.455 167.729 318.168 168.746C318.882 169.756 319.25 170.917 319.272 172.23H315.208Z" fill="#212529"/>
<path d="M349.379 165.82V189.135H345.156V165.82H349.379Z" fill="#212529"/>
<path d="M391.371 173.266C391.181 172.651 390.919 172.101 390.585 171.615C390.259 171.122 389.864 170.7 389.401 170.351C388.946 170.002 388.422 169.74 387.83 169.566C387.238 169.384 386.593 169.293 385.895 169.293C384.643 169.293 383.527 169.608 382.548 170.237C381.569 170.867 380.799 171.793 380.237 173.015C379.683 174.229 379.406 175.709 379.406 177.455C379.406 179.216 379.683 180.707 380.237 181.929C380.791 183.151 381.562 184.081 382.548 184.718C383.535 185.348 384.681 185.663 385.986 185.663C387.17 185.663 388.195 185.435 389.06 184.98C389.933 184.524 390.604 183.879 391.075 183.045C391.545 182.202 391.781 181.216 391.781 180.085L392.737 180.233H386.407V176.931H395.868V179.732C395.868 181.728 395.443 183.454 394.593 184.912C393.743 186.369 392.574 187.492 391.086 188.281C389.599 189.063 387.891 189.454 385.963 189.454C383.816 189.454 381.93 188.972 380.306 188.008C378.689 187.037 377.425 185.659 376.515 183.876C375.612 182.084 375.16 179.959 375.16 177.5C375.16 175.618 375.426 173.937 375.957 172.457C376.496 170.977 377.247 169.721 378.211 168.689C379.175 167.649 380.306 166.86 381.603 166.321C382.901 165.775 384.313 165.502 385.838 165.502C387.128 165.502 388.331 165.691 389.447 166.071C390.563 166.443 391.553 166.974 392.418 167.665C393.291 168.355 394.008 169.175 394.57 170.124C395.131 171.072 395.5 172.12 395.674 173.266H391.371Z" fill="#212529"/>
<path d="M440.91 165.82V189.135H437.153L426.168 173.254H425.974V189.135H421.751V165.82H425.53L436.505 181.713H436.71V165.82H440.91Z" fill="#212529"/>
<path d="M509.733 172.23C509.627 171.235 509.179 170.461 508.39 169.907C507.608 169.353 506.591 169.076 505.339 169.076C504.458 169.076 503.703 169.209 503.073 169.475C502.443 169.74 501.961 170.101 501.627 170.556C501.294 171.012 501.123 171.531 501.115 172.116C501.115 172.602 501.225 173.023 501.445 173.379C501.673 173.736 501.98 174.04 502.367 174.29C502.754 174.533 503.183 174.738 503.654 174.905C504.124 175.072 504.599 175.212 505.077 175.326L507.263 175.873C508.143 176.077 508.989 176.354 509.801 176.704C510.621 177.053 511.353 177.493 511.998 178.024C512.651 178.555 513.167 179.197 513.547 179.948C513.926 180.699 514.116 181.58 514.116 182.589C514.116 183.955 513.767 185.158 513.069 186.198C512.37 187.23 511.361 188.038 510.04 188.623C508.727 189.2 507.137 189.488 505.27 189.488C503.457 189.488 501.882 189.207 500.546 188.646C499.218 188.084 498.178 187.264 497.427 186.187C496.683 185.109 496.281 183.796 496.22 182.248H500.375C500.436 183.06 500.686 183.735 501.127 184.274C501.567 184.813 502.14 185.215 502.846 185.481C503.559 185.746 504.356 185.879 505.236 185.879C506.155 185.879 506.959 185.743 507.65 185.469C508.348 185.189 508.894 184.801 509.289 184.308C509.684 183.807 509.885 183.223 509.892 182.555C509.885 181.948 509.706 181.447 509.357 181.052C509.008 180.65 508.519 180.316 507.889 180.051C507.266 179.777 506.538 179.534 505.703 179.322L503.05 178.639C501.13 178.146 499.612 177.398 498.497 176.396C497.389 175.387 496.835 174.047 496.835 172.378C496.835 171.004 497.207 169.801 497.95 168.769C498.702 167.737 499.723 166.936 501.013 166.367C502.303 165.79 503.764 165.502 505.396 165.502C507.05 165.502 508.5 165.79 509.744 166.367C510.997 166.936 511.979 167.729 512.693 168.746C513.406 169.756 513.774 170.917 513.797 172.23H509.733Z" fill="#212529"/>
<path d="M538.087 165.82H542.856L548.56 176.134H548.788L554.491 165.82H559.261L550.78 180.438V189.135H546.568V180.438L538.087 165.82Z" fill="#212529"/>
<path d="M596.722 172.23C596.616 171.235 596.168 170.461 595.378 169.907C594.597 169.353 593.58 169.076 592.328 169.076C591.447 169.076 590.692 169.209 590.062 169.475C589.432 169.74 588.95 170.101 588.616 170.556C588.282 171.012 588.112 171.531 588.104 172.116C588.104 172.602 588.214 173.023 588.434 173.379C588.662 173.736 588.969 174.04 589.356 174.29C589.743 174.533 590.172 174.738 590.643 174.905C591.113 175.072 591.588 175.212 592.066 175.326L594.251 175.873C595.132 176.077 595.978 176.354 596.79 176.704C597.61 177.053 598.342 177.493 598.987 178.024C599.64 178.555 600.156 179.197 600.535 179.948C600.915 180.699 601.105 181.58 601.105 182.589C601.105 183.955 600.756 185.158 600.057 186.198C599.359 187.23 598.35 188.038 597.029 188.623C595.716 189.2 594.126 189.488 592.259 189.488C590.445 189.488 588.871 189.207 587.535 188.646C586.207 188.084 585.167 187.264 584.416 186.187C583.672 185.109 583.27 183.796 583.209 182.248H587.364C587.425 183.06 587.675 183.735 588.115 184.274C588.556 184.813 589.129 185.215 589.834 185.481C590.548 185.746 591.345 185.879 592.225 185.879C593.143 185.879 593.948 185.743 594.639 185.469C595.337 185.189 595.883 184.801 596.278 184.308C596.672 183.807 596.874 183.223 596.881 182.555C596.874 181.948 596.695 181.447 596.346 181.052C595.997 180.65 595.507 180.316 594.878 180.051C594.255 179.777 593.527 179.534 592.692 179.322L590.039 178.639C588.119 178.146 586.601 177.398 585.486 176.396C584.378 175.387 583.824 174.047 583.824 172.378C583.824 171.004 584.196 169.801 584.939 168.769C585.691 167.737 586.711 166.936 588.002 166.367C589.292 165.79 590.753 165.502 592.384 165.502C594.039 165.502 595.489 165.79 596.733 166.367C597.985 166.936 598.968 167.729 599.682 168.746C600.395 169.756 600.763 170.917 600.786 172.23H596.722Z" fill="#212529"/>
<path d="M625.645 169.361V165.82H644.246V169.361H637.04V189.135H632.851V169.361H625.645Z" fill="#212529"/>
<path d="M669.631 189.135V165.82H684.795V169.361H673.855V175.69H684.009V179.231H673.855V185.595H684.886V189.135H669.631Z" fill="#212529"/>
<path d="M710.903 165.82H716.071L722.993 182.714H723.266L730.188 165.82H735.356V189.135H731.303V173.118H731.087L724.644 189.067H721.616L715.172 173.083H714.956V189.135H710.903V165.82Z" fill="#212529"/>
<path d="M0.643921 13.0327C0.643921 7.69407 4.97383 3.36622 10.315 3.36622C15.6563 3.36622 20.0125 7.69397 20.0272 13.0326C20.036 16.2201 20.0213 19.3811 19.9276 22.5406C19.8455 25.1481 20.7071 26.8042 22.6824 28.4545C34.8328 38.6143 46.8719 48.8974 58.9462 59.1394C59.3044 59.4481 59.6664 59.7556 60.0361 60.0672C61.5907 61.3778 63.8876 61.4221 65.4346 60.1025C78.2298 49.1969 91.0485 38.3148 103.767 27.321C104.767 26.363 105.369 25.063 105.456 23.6799C105.546 20.1434 105.563 16.6053 105.56 13.0361C105.555 7.80259 109.782 3.56001 115.018 3.56001C120.254 3.56001 124.499 7.8026 124.499 13.0361V125.368C124.499 130.57 120.28 134.786 115.077 134.786C109.873 134.786 105.655 130.57 105.655 125.368V71.5525C105.655 62.8597 95.4396 58.1844 88.8554 63.8637L69.3855 80.6579C65.5782 83.9419 59.9402 83.9482 56.1256 80.6727L36.9091 64.1716C30.3203 58.5138 20.1268 63.1928 20.1268 71.8751V125.178C20.1268 130.556 15.7654 134.915 10.3854 134.915C5.00532 134.915 0.643921 130.556 0.643921 125.178V13.0327Z" fill="#212529"/>
<path d="M212.903 137.769C175.314 137.845 144.507 106.99 144.455 69.2228C144.402 31.4554 175.162 0.512054 212.756 0.512054C250.497 0.512054 281.492 31.4906 281.445 69.2228C281.392 106.849 250.556 137.693 212.903 137.769ZM211.819 119.505C239.097 119.869 261.258 98.2399 262.032 70.4502C262.771 43.6178 242.403 19.5279 213.841 18.8349C185.613 18.1478 164.254 41.2335 163.434 67.9837C162.625 95.2272 184.018 118.348 211.819 119.505Z" fill="#212529"/>
<path d="M399.667 13.6456C399.643 8.03662 404.173 3.48952 409.784 3.48952H433.776C438.771 3.48952 442.821 7.53733 442.821 12.5306C442.821 17.5238 438.771 21.5716 433.776 21.5716H428.886C423.437 21.5716 419.041 25.8932 418.208 31.2753C414.693 53.9614 402.045 69.1308 380.349 77.0601C376.031 78.6381 372.913 82.5948 372.913 87.1899V106.401C372.913 112.01 377.463 116.557 383.074 116.557H387.375C392.404 116.557 396.482 120.632 396.482 125.66C396.482 130.687 392.404 134.762 387.375 134.762H339.113C334.133 134.762 330.097 130.728 330.097 125.751C330.097 120.774 334.133 116.739 339.113 116.739H351.271C352.564 116.739 353.782 115.776 353.782 114.484C353.782 103.519 353.782 92.561 353.823 81.5966C353.823 79.8935 353.46 79.0068 351.625 78.5546C325.361 72.0946 308.838 51.775 307.759 24.6724C307.694 23.0519 306.444 21.7361 304.821 21.7361H292.9C287.87 21.7361 283.793 17.6606 283.793 12.6333C283.793 7.60605 287.87 3.53063 292.9 3.53063H316.782C322.394 3.53063 326.923 8.07763 326.894 13.6866C326.876 17.2718 326.874 20.8392 326.943 24.4081C327.277 38.2149 333.391 48.8328 345.283 55.8037C368.687 69.54 398.891 52.6442 399.576 25.5063C399.679 21.5791 399.683 17.6413 399.667 13.6456Z" fill="#212529"/>
<path d="M576.284 69.0147C576.383 106.723 545.412 137.725 507.66 137.767C470.06 137.767 439.294 106.882 439.3 69.1263C439.3 31.488 469.896 0.673865 507.396 0.515302C545.113 0.356738 576.19 31.259 576.284 69.0147ZM507.601 119.529V119.529C507.607 119.523 507.615 119.52 507.623 119.52C534.657 119.508 556.883 96.8499 556.959 69.1967C557.035 41.5362 534.903 18.9028 507.724 18.7266C480.546 18.5504 458.196 41.4423 458.302 69.1967C458.407 96.9439 480.463 119.508 507.58 119.538C507.588 119.538 507.596 119.535 507.601 119.529V119.529Z" fill="#212529"/>
<path fill-rule="evenodd" clip-rule="evenodd" d="M605.835 15.1576C598.099 25.2388 598.099 39.8727 598.099 69.1407C598.099 98.4086 598.099 113.043 605.835 123.124C607.826 125.719 610.149 128.042 612.745 130.034C622.826 137.769 637.46 137.769 666.728 137.769C695.996 137.769 710.629 137.769 720.711 130.034C723.306 128.042 725.629 125.719 727.621 123.124C735.356 113.043 735.356 98.4086 735.356 69.1407C735.356 39.8727 735.356 25.2388 727.621 15.1576C725.629 12.5622 723.306 10.2391 720.711 8.24762C710.629 0.512054 695.996 0.512054 666.728 0.512054C637.46 0.512054 622.826 0.512054 612.745 8.24762C610.149 10.2391 607.826 12.5622 605.835 15.1576ZM700.535 60.0106H693.479C693.104 56.5757 690.218 54.5424 685.85 54.5424C681.265 54.5424 678.537 56.7731 678.517 59.8131C678.478 63.1888 682.075 64.5904 685.396 65.38L689.19 66.3276C695.278 67.7687 701.069 70.9667 701.089 77.9746C701.069 85.101 695.436 89.9375 685.731 89.9375C676.304 89.9375 670.315 85.4169 670.018 77.3824H677.233C677.529 81.6267 681.087 83.6797 685.672 83.6797C690.455 83.6797 693.736 81.37 693.756 77.9154C693.736 74.7766 690.851 73.4145 686.483 72.309L681.877 71.1246C675.217 69.4071 671.086 66.071 671.086 60.2672C671.066 53.121 677.45 48.3438 685.949 48.3438C694.566 48.3438 700.397 53.1803 700.535 60.0106ZM665.729 69.0715C665.729 81.7056 658.416 89.3255 646.083 89.3255H632.366V48.8965H646.36C658.416 48.8965 665.729 56.477 665.729 69.0715ZM639.699 55.2333V82.9888H645.727C654.167 82.9888 658.456 78.3694 658.456 69.0715C658.456 59.8131 654.167 55.2333 645.945 55.2333H639.699Z" fill="#212529"/>
</svg>
